<mxfile host="65bd71144e">
    <diagram id="ZNUTMDEAcTRhCldl6f15" name="Page-1">
        <mxGraphModel dx="979" dy="549" grid="1" gridSize="10" guides="1" tooltips="1" connect="1" arrows="1" fold="1" page="1" pageScale="1" pageWidth="850" pageHeight="1100" math="0" shadow="0">
            <root>
                <mxCell id="0"/>
                <mxCell id="1" parent="0"/>
                <mxCell id="2" value="" style="shape=table;html=1;whiteSpace=wrap;startSize=0;container=1;collapsible=0;childLayout=tableLayout;" parent="1" vertex="1">
                    <mxGeometry x="140" y="20" width="570" height="520.0000000000002" as="geometry"/>
                </mxCell>
                <mxCell id="3" value="" style="shape=tableRow;horizontal=0;startSize=0;swimlaneHead=0;swimlaneBody=0;top=0;left=0;bottom=0;right=0;collapsible=0;dropTarget=0;fillColor=none;points=[[0,0.5],[1,0.5]];portConstraint=eastwest;" parent="2" vertex="1">
                    <mxGeometry width="570" height="38" as="geometry"/>
                </mxCell>
                <mxCell id="4" value="User" style="shape=partialRectangle;html=1;whiteSpace=wrap;connectable=0;fillColor=#dae8fc;top=0;left=0;bottom=0;right=0;overflow=hidden;strokeColor=#6c8ebf;" parent="3" vertex="1">
                    <mxGeometry width="189" height="38" as="geometry">
                        <mxRectangle width="189" height="38" as="alternateBounds"/>
                    </mxGeometry>
                </mxCell>
                <mxCell id="5" value="Flowmi" style="shape=partialRectangle;html=1;whiteSpace=wrap;connectable=0;fillColor=#dae8fc;top=0;left=0;bottom=0;right=0;overflow=hidden;strokeColor=#6c8ebf;" parent="3" vertex="1">
                    <mxGeometry x="189" width="192" height="38" as="geometry">
                        <mxRectangle width="192" height="38" as="alternateBounds"/>
                    </mxGeometry>
                </mxCell>
                <mxCell id="6" value="Backend" style="shape=partialRectangle;html=1;whiteSpace=wrap;connectable=0;fillColor=#dae8fc;top=0;left=0;bottom=0;right=0;overflow=hidden;strokeColor=#6c8ebf;" parent="3" vertex="1">
                    <mxGeometry x="381" width="189" height="38" as="geometry">
                        <mxRectangle width="189" height="38" as="alternateBounds"/>
                    </mxGeometry>
                </mxCell>
                <mxCell id="7" value="" style="shape=tableRow;horizontal=0;startSize=0;swimlaneHead=0;swimlaneBody=0;top=0;left=0;bottom=0;right=0;collapsible=0;dropTarget=0;fillColor=none;points=[[0,0.5],[1,0.5]];portConstraint=eastwest;" parent="2" vertex="1">
                    <mxGeometry y="38" width="570" height="482" as="geometry"/>
                </mxCell>
                <mxCell id="8" value="" style="shape=partialRectangle;html=1;whiteSpace=wrap;connectable=0;fillColor=none;top=0;left=0;bottom=0;right=0;overflow=hidden;" parent="7" vertex="1">
                    <mxGeometry width="189" height="482" as="geometry">
                        <mxRectangle width="189" height="482" as="alternateBounds"/>
                    </mxGeometry>
                </mxCell>
                <mxCell id="9" value="" style="shape=partialRectangle;html=1;whiteSpace=wrap;connectable=0;fillColor=none;top=0;left=0;bottom=0;right=0;overflow=hidden;" parent="7" vertex="1">
                    <mxGeometry x="189" width="192" height="482" as="geometry">
                        <mxRectangle width="192" height="482" as="alternateBounds"/>
                    </mxGeometry>
                </mxCell>
                <mxCell id="10" value="" style="shape=partialRectangle;html=1;whiteSpace=wrap;connectable=0;fillColor=none;top=0;left=0;bottom=0;right=0;overflow=hidden;pointerEvents=1;" parent="7" vertex="1">
                    <mxGeometry x="381" width="189" height="482" as="geometry">
                        <mxRectangle width="189" height="482" as="alternateBounds"/>
                    </mxGeometry>
                </mxCell>
                <mxCell id="11" style="edgeStyle=none;html=1;" parent="1" source="12" target="14" edge="1">
                    <mxGeometry relative="1" as="geometry"/>
                </mxCell>
                <mxCell id="12" value="" style="ellipse;whiteSpace=wrap;html=1;fillColor=#030303;" parent="1" vertex="1">
                    <mxGeometry x="220" y="70" width="20" height="20" as="geometry"/>
                </mxCell>
                <mxCell id="13" style="edgeStyle=none;html=1;" parent="1" source="14" target="16" edge="1">
                    <mxGeometry relative="1" as="geometry"/>
                </mxCell>
                <mxCell id="14" value="Enter user Details" style="whiteSpace=wrap;html=1;fillColor=#FAFAFA;rounded=1;" parent="1" vertex="1">
                    <mxGeometry x="170" y="120" width="120" height="30" as="geometry"/>
                </mxCell>
                <mxCell id="15" style="edgeStyle=none;html=1;entryX=0;entryY=0.5;entryDx=0;entryDy=0;" parent="1" source="16" target="22" edge="1">
                    <mxGeometry relative="1" as="geometry"/>
                </mxCell>
                <mxCell id="16" value="Display Login Page" style="whiteSpace=wrap;html=1;fillColor=#FAFAFA;rounded=1;" parent="1" vertex="1">
                    <mxGeometry x="360" y="120" width="120" height="30" as="geometry"/>
                </mxCell>
                <mxCell id="50" style="edgeStyle=none;html=1;entryX=0;entryY=0.5;entryDx=0;entryDy=0;" edge="1" parent="1" source="18" target="49">
                    <mxGeometry relative="1" as="geometry"/>
                </mxCell>
                <mxCell id="18" value="Display App UI" style="whiteSpace=wrap;html=1;fillColor=#FAFAFA;rounded=1;" parent="1" vertex="1">
                    <mxGeometry x="360" y="238.5" width="120" height="30" as="geometry"/>
                </mxCell>
                <mxCell id="19" style="edgeStyle=none;html=1;" parent="1" source="20" target="18" edge="1">
                    <mxGeometry relative="1" as="geometry"/>
                </mxCell>
                <mxCell id="20" value="Click Options" style="whiteSpace=wrap;html=1;fillColor=#FAFAFA;rounded=1;" parent="1" vertex="1">
                    <mxGeometry x="170" y="240" width="120" height="30" as="geometry"/>
                </mxCell>
                <mxCell id="21" style="edgeStyle=none;html=1;" parent="1" source="22" target="27" edge="1">
                    <mxGeometry relative="1" as="geometry"/>
                </mxCell>
                <mxCell id="22" value="Verify User" style="whiteSpace=wrap;html=1;fillColor=#FAFAFA;rounded=1;" parent="1" vertex="1">
                    <mxGeometry x="558" y="120" width="120" height="30" as="geometry"/>
                </mxCell>
                <mxCell id="23" style="edgeStyle=none;html=1;entryX=1;entryY=0.5;entryDx=0;entryDy=0;" parent="1" source="27" target="29" edge="1">
                    <mxGeometry relative="1" as="geometry"/>
                </mxCell>
                <mxCell id="24" value="invalid" style="edgeLabel;html=1;align=center;verticalAlign=middle;resizable=0;points=[];" parent="23" vertex="1" connectable="0">
                    <mxGeometry x="-0.4892" y="-1" relative="1" as="geometry">
                        <mxPoint x="-10" as="offset"/>
                    </mxGeometry>
                </mxCell>
                <mxCell id="25" style="edgeStyle=none;html=1;entryX=0.75;entryY=0;entryDx=0;entryDy=0;" parent="1" source="27" target="20" edge="1">
                    <mxGeometry relative="1" as="geometry">
                        <Array as="points">
                            <mxPoint x="618" y="220"/>
                            <mxPoint x="260" y="220"/>
                        </Array>
                    </mxGeometry>
                </mxCell>
                <mxCell id="26" value="valid" style="edgeLabel;html=1;align=center;verticalAlign=middle;resizable=0;points=[];" parent="25" vertex="1" connectable="0">
                    <mxGeometry x="-0.6697" y="1" relative="1" as="geometry">
                        <mxPoint x="2" as="offset"/>
                    </mxGeometry>
                </mxCell>
                <mxCell id="27" value="" style="rhombus;whiteSpace=wrap;html=1;fillColor=#ffe6cc;strokeColor=#d79b00;" parent="1" vertex="1">
                    <mxGeometry x="612" y="180" width="12" height="30" as="geometry"/>
                </mxCell>
                <mxCell id="28" style="edgeStyle=none;html=1;entryX=0.5;entryY=0;entryDx=0;entryDy=0;" parent="1" source="29" target="20" edge="1">
                    <mxGeometry relative="1" as="geometry">
                        <Array as="points">
                            <mxPoint x="230" y="195"/>
                        </Array>
                    </mxGeometry>
                </mxCell>
                <mxCell id="29" value="Set New User Info&amp;nbsp;" style="whiteSpace=wrap;html=1;fillColor=#FAFAFA;rounded=1;" parent="1" vertex="1">
                    <mxGeometry x="360" y="180" width="120" height="30" as="geometry"/>
                </mxCell>
                <mxCell id="33" value="Traffic Alert and Reschedule" style="whiteSpace=wrap;html=1;fillColor=#FAFAFA;rounded=1;" parent="1" vertex="1">
                    <mxGeometry x="360" y="298.5" width="120" height="30" as="geometry"/>
                </mxCell>
                <mxCell id="34" style="edgeStyle=none;html=1;exitX=0;exitY=0.5;exitDx=0;exitDy=0;entryX=1;entryY=0.5;entryDx=0;entryDy=0;" parent="1" source="33" target="35" edge="1">
                    <mxGeometry relative="1" as="geometry"/>
                </mxCell>
                <mxCell id="35" value="Recieve Alert" style="whiteSpace=wrap;html=1;fillColor=#FAFAFA;rounded=1;" parent="1" vertex="1">
                    <mxGeometry x="170" y="300" width="120" height="30" as="geometry"/>
                </mxCell>
                <mxCell id="37" value="Display Updated UI" style="whiteSpace=wrap;html=1;fillColor=#FAFAFA;rounded=1;" parent="1" vertex="1">
                    <mxGeometry x="360" y="368.5" width="120" height="30" as="geometry"/>
                </mxCell>
                <mxCell id="38" style="edgeStyle=none;html=1;entryX=0.5;entryY=0;entryDx=0;entryDy=0;exitX=0.5;exitY=1;exitDx=0;exitDy=0;" parent="1" source="47" target="41" edge="1">
                    <mxGeometry relative="1" as="geometry">
                        <mxPoint x="230" y="450" as="sourcePoint"/>
                    </mxGeometry>
                </mxCell>
                <mxCell id="39" value="Click Logout" style="whiteSpace=wrap;html=1;fillColor=#FAFAFA;rounded=1;" parent="1" vertex="1">
                    <mxGeometry x="170" y="368.5" width="120" height="30" as="geometry"/>
                </mxCell>
                <mxCell id="40" value="" style="ellipse;whiteSpace=wrap;html=1;fillColor=#030303;" parent="1" vertex="1">
                    <mxGeometry x="225" y="515" width="10" height="10" as="geometry"/>
                </mxCell>
                <mxCell id="41" value="" style="ellipse;whiteSpace=wrap;html=1;fillColor=none;" parent="1" vertex="1">
                    <mxGeometry x="220" y="510" width="20" height="20" as="geometry"/>
                </mxCell>
                <mxCell id="42" style="edgeStyle=none;html=1;exitX=0.5;exitY=1;exitDx=0;exitDy=0;entryX=0.5;entryY=0;entryDx=0;entryDy=0;" parent="1" source="33" target="37" edge="1">
                    <mxGeometry relative="1" as="geometry">
                        <mxPoint x="619.2142857142858" y="328.5" as="sourcePoint"/>
                    </mxGeometry>
                </mxCell>
                <mxCell id="44" style="edgeStyle=none;html=1;entryX=0;entryY=0.5;entryDx=0;entryDy=0;exitX=1;exitY=0.5;exitDx=0;exitDy=0;" parent="1" source="39" target="37" edge="1">
                    <mxGeometry relative="1" as="geometry">
                        <mxPoint x="300" y="324.30769230769226" as="sourcePoint"/>
                        <mxPoint x="370" y="323.5" as="targetPoint"/>
                    </mxGeometry>
                </mxCell>
                <mxCell id="58" style="edgeStyle=none;html=1;entryX=0;entryY=0.5;entryDx=0;entryDy=0;" edge="1" parent="1" source="45" target="57">
                    <mxGeometry relative="1" as="geometry"/>
                </mxCell>
                <mxCell id="45" value="Logout Popup" style="whiteSpace=wrap;html=1;fillColor=#FAFAFA;rounded=1;" parent="1" vertex="1">
                    <mxGeometry x="360" y="430" width="120" height="30" as="geometry"/>
                </mxCell>
                <mxCell id="46" style="edgeStyle=none;html=1;" parent="1" target="45" edge="1">
                    <mxGeometry relative="1" as="geometry">
                        <mxPoint x="420" y="400" as="sourcePoint"/>
                        <mxPoint x="430" y="308.5" as="targetPoint"/>
                    </mxGeometry>
                </mxCell>
                <mxCell id="48" style="edgeStyle=none;html=1;entryX=0;entryY=0.5;entryDx=0;entryDy=0;" parent="1" source="47" target="45" edge="1">
                    <mxGeometry relative="1" as="geometry"/>
                </mxCell>
                <mxCell id="47" value="Click Okay" style="whiteSpace=wrap;html=1;fillColor=#FAFAFA;rounded=1;" parent="1" vertex="1">
                    <mxGeometry x="170" y="430" width="120" height="30" as="geometry"/>
                </mxCell>
                <mxCell id="49" value="Traffic Prediction" style="whiteSpace=wrap;html=1;fillColor=#FAFAFA;rounded=1;" vertex="1" parent="1">
                    <mxGeometry x="558" y="238.5" width="120" height="30" as="geometry"/>
                </mxCell>
                <mxCell id="53" style="edgeStyle=none;html=1;entryX=1;entryY=0.5;entryDx=0;entryDy=0;" edge="1" parent="1" source="51" target="33">
                    <mxGeometry relative="1" as="geometry"/>
                </mxCell>
                <mxCell id="51" value="Route Calculaion" style="whiteSpace=wrap;html=1;fillColor=#FAFAFA;rounded=1;" vertex="1" parent="1">
                    <mxGeometry x="558" y="300" width="120" height="30" as="geometry"/>
                </mxCell>
                <mxCell id="52" style="edgeStyle=none;html=1;exitX=0.5;exitY=1;exitDx=0;exitDy=0;" edge="1" parent="1" source="49" target="51">
                    <mxGeometry relative="1" as="geometry">
                        <mxPoint x="620" y="260" as="sourcePoint"/>
                        <mxPoint x="628" y="190" as="targetPoint"/>
                    </mxGeometry>
                </mxCell>
                <mxCell id="57" value="Update login status" style="whiteSpace=wrap;html=1;fillColor=#FAFAFA;rounded=1;" vertex="1" parent="1">
                    <mxGeometry x="550" y="430" width="120" height="30" as="geometry"/>
                </mxCell>
            </root>
        </mxGraphModel>
    </diagram>
</mxfile>